<mxfile host="app.diagrams.net" agent="Mozilla/5.0 (Macintosh; Intel Mac OS X 10_15_7) AppleWebKit/537.36 (KHTML, like Gecko) Chrome/131.0.0.0 Safari/537.36" version="26.0.16">
  <diagram name="Page-1" id="5f0bae14-7c28-e335-631c-24af17079c00">
    <mxGraphModel dx="2074" dy="1145" grid="1" gridSize="10" guides="1" tooltips="1" connect="1" arrows="1" fold="1" page="1" pageScale="1" pageWidth="1100" pageHeight="850" background="none" math="0" shadow="0">
      <root>
        <mxCell id="0" />
        <mxCell id="1" parent="0" />
        <mxCell id="39150e848f15840c-1" value="INTRENAL" style="verticalAlign=top;align=left;spacingTop=8;spacingLeft=2;spacingRight=12;shape=cube;size=10;direction=south;fontStyle=4;html=1;rounded=0;shadow=0;comic=0;labelBackgroundColor=none;strokeWidth=1;fontFamily=Verdana;fontSize=12" parent="1" vertex="1">
          <mxGeometry x="110" y="270" width="640" height="490" as="geometry" />
        </mxCell>
        <mxCell id="39150e848f15840c-2" value="EXTERNAL" style="verticalAlign=top;align=left;spacingTop=8;spacingLeft=2;spacingRight=12;shape=cube;size=10;direction=south;fontStyle=4;html=1;rounded=0;shadow=0;comic=0;labelBackgroundColor=none;strokeWidth=1;fontFamily=Verdana;fontSize=12" parent="1" vertex="1">
          <mxGeometry x="910" y="270" width="400" height="190" as="geometry" />
        </mxCell>
        <mxCell id="mbMMLszBKSOFe_aVKNgy-1" value="" style="endArrow=none;dashed=1;html=1;rounded=0;" edge="1" parent="1">
          <mxGeometry width="50" height="50" relative="1" as="geometry">
            <mxPoint x="840" y="760" as="sourcePoint" />
            <mxPoint x="840" y="150" as="targetPoint" />
          </mxGeometry>
        </mxCell>
        <mxCell id="mbMMLszBKSOFe_aVKNgy-7" value="" style="edgeStyle=orthogonalEdgeStyle;rounded=0;orthogonalLoop=1;jettySize=auto;html=1;" edge="1" parent="1" source="mbMMLszBKSOFe_aVKNgy-4" target="mbMMLszBKSOFe_aVKNgy-6">
          <mxGeometry relative="1" as="geometry" />
        </mxCell>
        <mxCell id="mbMMLszBKSOFe_aVKNgy-4" value="THIRD PARTY PAYMENT SYSTEMS" style="rounded=0;whiteSpace=wrap;html=1;" vertex="1" parent="1">
          <mxGeometry x="930" y="320" width="120" height="50" as="geometry" />
        </mxCell>
        <mxCell id="mbMMLszBKSOFe_aVKNgy-6" value="CARD PROCESSORS" style="whiteSpace=wrap;html=1;rounded=0;" vertex="1" parent="1">
          <mxGeometry x="1150" y="315" width="120" height="60" as="geometry" />
        </mxCell>
        <mxCell id="mbMMLszBKSOFe_aVKNgy-19" style="edgeStyle=orthogonalEdgeStyle;rounded=0;orthogonalLoop=1;jettySize=auto;html=1;exitX=0.25;exitY=1;exitDx=0;exitDy=0;entryX=0.5;entryY=0;entryDx=0;entryDy=0;" edge="1" parent="1" source="mbMMLszBKSOFe_aVKNgy-8" target="mbMMLszBKSOFe_aVKNgy-10">
          <mxGeometry relative="1" as="geometry" />
        </mxCell>
        <mxCell id="mbMMLszBKSOFe_aVKNgy-35" value="8" style="edgeLabel;html=1;align=center;verticalAlign=middle;resizable=0;points=[];" vertex="1" connectable="0" parent="mbMMLszBKSOFe_aVKNgy-19">
          <mxGeometry x="0.1048" y="1" relative="1" as="geometry">
            <mxPoint y="14" as="offset" />
          </mxGeometry>
        </mxCell>
        <mxCell id="mbMMLszBKSOFe_aVKNgy-21" style="edgeStyle=orthogonalEdgeStyle;rounded=0;orthogonalLoop=1;jettySize=auto;html=1;" edge="1" parent="1" source="mbMMLszBKSOFe_aVKNgy-8" target="mbMMLszBKSOFe_aVKNgy-11">
          <mxGeometry relative="1" as="geometry" />
        </mxCell>
        <mxCell id="mbMMLszBKSOFe_aVKNgy-37" value="6" style="edgeLabel;html=1;align=center;verticalAlign=middle;resizable=0;points=[];" vertex="1" connectable="0" parent="mbMMLszBKSOFe_aVKNgy-21">
          <mxGeometry x="0.45" y="3" relative="1" as="geometry">
            <mxPoint x="17" as="offset" />
          </mxGeometry>
        </mxCell>
        <mxCell id="mbMMLszBKSOFe_aVKNgy-26" style="edgeStyle=orthogonalEdgeStyle;rounded=0;orthogonalLoop=1;jettySize=auto;html=1;" edge="1" parent="1" source="mbMMLszBKSOFe_aVKNgy-8" target="mbMMLszBKSOFe_aVKNgy-9">
          <mxGeometry relative="1" as="geometry" />
        </mxCell>
        <mxCell id="mbMMLszBKSOFe_aVKNgy-28" value="3" style="edgeLabel;html=1;align=center;verticalAlign=middle;resizable=0;points=[];" vertex="1" connectable="0" parent="mbMMLszBKSOFe_aVKNgy-26">
          <mxGeometry x="-0.1692" y="1" relative="1" as="geometry">
            <mxPoint y="-9" as="offset" />
          </mxGeometry>
        </mxCell>
        <mxCell id="mbMMLszBKSOFe_aVKNgy-34" value="PAY ORDER SENT TO EXECUTE" style="edgeLabel;html=1;align=center;verticalAlign=middle;resizable=0;points=[];" vertex="1" connectable="0" parent="mbMMLszBKSOFe_aVKNgy-26">
          <mxGeometry x="0.1077" relative="1" as="geometry">
            <mxPoint x="-2" y="-25" as="offset" />
          </mxGeometry>
        </mxCell>
        <mxCell id="mbMMLszBKSOFe_aVKNgy-8" value="PAYMENT SERVICE" style="rounded=0;whiteSpace=wrap;html=1;" vertex="1" parent="1">
          <mxGeometry x="270" y="360" width="120" height="50" as="geometry" />
        </mxCell>
        <mxCell id="mbMMLszBKSOFe_aVKNgy-9" value="PAYMENT EXECUTOR" style="rounded=0;whiteSpace=wrap;html=1;" vertex="1" parent="1">
          <mxGeometry x="600" y="360" width="120" height="50" as="geometry" />
        </mxCell>
        <mxCell id="mbMMLszBKSOFe_aVKNgy-25" style="edgeStyle=orthogonalEdgeStyle;rounded=0;orthogonalLoop=1;jettySize=auto;html=1;" edge="1" parent="1" source="mbMMLszBKSOFe_aVKNgy-10" target="mbMMLszBKSOFe_aVKNgy-23">
          <mxGeometry relative="1" as="geometry" />
        </mxCell>
        <mxCell id="mbMMLszBKSOFe_aVKNgy-36" value="9" style="edgeLabel;html=1;align=center;verticalAlign=middle;resizable=0;points=[];" vertex="1" connectable="0" parent="mbMMLszBKSOFe_aVKNgy-25">
          <mxGeometry x="-0.325" y="-1" relative="1" as="geometry">
            <mxPoint x="21" y="13" as="offset" />
          </mxGeometry>
        </mxCell>
        <mxCell id="mbMMLszBKSOFe_aVKNgy-10" value="LEDGER SYSTEMS" style="rounded=0;whiteSpace=wrap;html=1;" vertex="1" parent="1">
          <mxGeometry x="140" y="520" width="120" height="50" as="geometry" />
        </mxCell>
        <mxCell id="mbMMLszBKSOFe_aVKNgy-11" value="WALLET SYSTEM" style="rounded=0;whiteSpace=wrap;html=1;" vertex="1" parent="1">
          <mxGeometry x="320" y="520" width="120" height="50" as="geometry" />
        </mxCell>
        <mxCell id="mbMMLszBKSOFe_aVKNgy-12" value="DB" style="shape=cylinder3;whiteSpace=wrap;html=1;boundedLbl=1;backgroundOutline=1;size=15;" vertex="1" parent="1">
          <mxGeometry x="130" y="345" width="60" height="80" as="geometry" />
        </mxCell>
        <mxCell id="mbMMLszBKSOFe_aVKNgy-14" style="edgeStyle=orthogonalEdgeStyle;rounded=0;orthogonalLoop=1;jettySize=auto;html=1;" edge="1" parent="1" source="mbMMLszBKSOFe_aVKNgy-13" target="mbMMLszBKSOFe_aVKNgy-8">
          <mxGeometry relative="1" as="geometry" />
        </mxCell>
        <mxCell id="mbMMLszBKSOFe_aVKNgy-15" value="1&lt;div&gt;&lt;br&gt;&lt;/div&gt;" style="edgeLabel;html=1;align=center;verticalAlign=middle;resizable=0;points=[];" vertex="1" connectable="0" parent="mbMMLszBKSOFe_aVKNgy-14">
          <mxGeometry x="-0.25" relative="1" as="geometry">
            <mxPoint x="10" as="offset" />
          </mxGeometry>
        </mxCell>
        <mxCell id="mbMMLszBKSOFe_aVKNgy-33" value="USER SENDS PAYMENT EVENT&amp;nbsp;" style="edgeLabel;html=1;align=center;verticalAlign=middle;resizable=0;points=[];" vertex="1" connectable="0" parent="mbMMLszBKSOFe_aVKNgy-14">
          <mxGeometry x="-0.69" relative="1" as="geometry">
            <mxPoint x="90" y="9" as="offset" />
          </mxGeometry>
        </mxCell>
        <mxCell id="mbMMLszBKSOFe_aVKNgy-13" value="" style="shape=actor;whiteSpace=wrap;html=1;" vertex="1" parent="1">
          <mxGeometry x="320" y="100" width="40" height="60" as="geometry" />
        </mxCell>
        <mxCell id="mbMMLszBKSOFe_aVKNgy-16" style="edgeStyle=orthogonalEdgeStyle;rounded=0;orthogonalLoop=1;jettySize=auto;html=1;entryX=1;entryY=0.5;entryDx=0;entryDy=0;entryPerimeter=0;" edge="1" parent="1" source="mbMMLszBKSOFe_aVKNgy-8" target="mbMMLszBKSOFe_aVKNgy-12">
          <mxGeometry relative="1" as="geometry" />
        </mxCell>
        <mxCell id="mbMMLszBKSOFe_aVKNgy-17" value="2" style="edgeLabel;html=1;align=center;verticalAlign=middle;resizable=0;points=[];" vertex="1" connectable="0" parent="mbMMLszBKSOFe_aVKNgy-16">
          <mxGeometry x="0.0222" y="-3" relative="1" as="geometry">
            <mxPoint x="-4" y="-7" as="offset" />
          </mxGeometry>
        </mxCell>
        <mxCell id="mbMMLszBKSOFe_aVKNgy-22" value="DB" style="shape=cylinder3;whiteSpace=wrap;html=1;boundedLbl=1;backgroundOutline=1;size=15;" vertex="1" parent="1">
          <mxGeometry x="380" y="640" width="60" height="80" as="geometry" />
        </mxCell>
        <mxCell id="mbMMLszBKSOFe_aVKNgy-23" value="DB" style="shape=cylinder3;whiteSpace=wrap;html=1;boundedLbl=1;backgroundOutline=1;size=15;" vertex="1" parent="1">
          <mxGeometry x="160" y="640" width="60" height="80" as="geometry" />
        </mxCell>
        <mxCell id="mbMMLszBKSOFe_aVKNgy-24" style="edgeStyle=orthogonalEdgeStyle;rounded=0;orthogonalLoop=1;jettySize=auto;html=1;entryX=0.5;entryY=0;entryDx=0;entryDy=0;entryPerimeter=0;" edge="1" parent="1" source="mbMMLszBKSOFe_aVKNgy-11" target="mbMMLszBKSOFe_aVKNgy-22">
          <mxGeometry relative="1" as="geometry" />
        </mxCell>
        <mxCell id="mbMMLszBKSOFe_aVKNgy-38" value="7" style="edgeLabel;html=1;align=center;verticalAlign=middle;resizable=0;points=[];" vertex="1" connectable="0" parent="mbMMLszBKSOFe_aVKNgy-24">
          <mxGeometry x="0.24" y="1" relative="1" as="geometry">
            <mxPoint x="13" y="-4" as="offset" />
          </mxGeometry>
        </mxCell>
        <mxCell id="mbMMLszBKSOFe_aVKNgy-27" style="edgeStyle=orthogonalEdgeStyle;rounded=0;orthogonalLoop=1;jettySize=auto;html=1;entryX=0.605;entryY=1.01;entryDx=0;entryDy=0;entryPerimeter=0;" edge="1" parent="1" source="mbMMLszBKSOFe_aVKNgy-9" target="39150e848f15840c-2">
          <mxGeometry relative="1" as="geometry" />
        </mxCell>
        <mxCell id="mbMMLszBKSOFe_aVKNgy-32" value="5" style="edgeLabel;html=1;align=center;verticalAlign=middle;resizable=0;points=[];" vertex="1" connectable="0" parent="mbMMLszBKSOFe_aVKNgy-27">
          <mxGeometry x="-0.6173" relative="1" as="geometry">
            <mxPoint x="1" y="-10" as="offset" />
          </mxGeometry>
        </mxCell>
        <mxCell id="mbMMLszBKSOFe_aVKNgy-29" value="DB" style="shape=cylinder3;whiteSpace=wrap;html=1;boundedLbl=1;backgroundOutline=1;size=15;" vertex="1" parent="1">
          <mxGeometry x="570" y="540" width="60" height="80" as="geometry" />
        </mxCell>
        <mxCell id="mbMMLszBKSOFe_aVKNgy-30" style="edgeStyle=orthogonalEdgeStyle;rounded=0;orthogonalLoop=1;jettySize=auto;html=1;entryX=0.5;entryY=0;entryDx=0;entryDy=0;entryPerimeter=0;" edge="1" parent="1" source="mbMMLszBKSOFe_aVKNgy-9" target="mbMMLszBKSOFe_aVKNgy-29">
          <mxGeometry relative="1" as="geometry" />
        </mxCell>
        <mxCell id="mbMMLszBKSOFe_aVKNgy-31" value="4" style="edgeLabel;html=1;align=center;verticalAlign=middle;resizable=0;points=[];" vertex="1" connectable="0" parent="mbMMLszBKSOFe_aVKNgy-30">
          <mxGeometry x="-0.3429" y="2" relative="1" as="geometry">
            <mxPoint x="8" y="4" as="offset" />
          </mxGeometry>
        </mxCell>
      </root>
    </mxGraphModel>
  </diagram>
</mxfile>
